HIERARCHY
ROOT Hips
{
    OFFSET 0.000000 0.000000 0.000000
    CHANNELS 6 Xposition Yposition Zposition Zrotation Xrotation Yrotation
    JOINT Spine
    {
        OFFSET -0.000000 8.267054 0.000000
        CHANNELS 3 Zrotation Xrotation Yrotation
        JOINT Spine1
        {
            OFFSET -0.000000 23.684998 0.000000
            CHANNELS 3 Zrotation Xrotation Yrotation
            JOINT Neck
            {
                OFFSET -0.000000 23.587730 2.144339
                CHANNELS 3 Zrotation Xrotation Yrotation
                JOINT Head
                {
                    OFFSET -0.000000 14.114483 -2.016355
                    CHANNELS 3 Zrotation Xrotation Yrotation
                    End Site
                    {
                        OFFSET -0.000000 25.204432 0.000000
                    }
                }
            }
            JOINT LeftShoulder
            {
                OFFSET 4.070090 22.062094 -0.247321
                CHANNELS 3 Zrotation Xrotation Yrotation
                JOINT LeftArm
                {
                    OFFSET 10.395479 0.000000 0.000000
                    CHANNELS 3 Zrotation Xrotation Yrotation
                    JOINT LeftForeArm
                    {
                        OFFSET 37.713577 0.000000 0.000000
                        CHANNELS 3 Zrotation Xrotation Yrotation
                        JOINT LeftHand
                        {
                            OFFSET 20.284107 0.000000 0.000000
                            CHANNELS 3 Zrotation Xrotation Yrotation
                            End Site
                            {
                                OFFSET 15.122660 0.000000 0.000000
                            }
                        }
                    }
                }
            }
            JOINT RightShoulder
            {
                OFFSET -3.979272 22.062094 -0.247321
                CHANNELS 3 Zrotation Xrotation Yrotation
                JOINT RightArm
                {
                    OFFSET -10.395479 0.000000 0.000000
                    CHANNELS 3 Zrotation Xrotation Yrotation
                    JOINT RightForeArm
                    {
                        OFFSET -37.713577 0.000000 0.000000
                        CHANNELS 3 Zrotation Xrotation Yrotation
                        JOINT RightHand
                        {
                            OFFSET -20.284107 0.000000 0.000000
                            CHANNELS 3 Zrotation Xrotation Yrotation
                            End Site
                            {
                                OFFSET -15.122660 0.000000 0.000000
                            }
                        }
                    }
                }
            }
        }
    }
    JOINT LeftUpLeg
    {
        OFFSET 10.081773 0.000000 0.000000
        CHANNELS 3 Zrotation Xrotation Yrotation
        JOINT LeftLeg
        {
            OFFSET -0.000000 -36.382099 0.000000
            CHANNELS 3 Zrotation Xrotation Yrotation
            JOINT LeftFoot
            {
                OFFSET -0.000000 -49.182560 0.000000
                CHANNELS 3 Zrotation Xrotation Yrotation
                JOINT LeftToeBase
                {
                    OFFSET -0.000000 -6.553152 15.122660
                    CHANNELS 3 Zrotation Xrotation Yrotation
                    End Site
                    {
                        OFFSET -0.000000 0.000000 4.032709
                    }
                }
            }
        }
    }
    JOINT RightUpLeg
    {
        OFFSET -10.081773 0.000000 0.000000
        CHANNELS 3 Zrotation Xrotation Yrotation
        JOINT RightLeg
        {
            OFFSET -0.000000 -36.382099 0.000000
            CHANNELS 3 Zrotation Xrotation Yrotation
            JOINT RightFoot
            {
                OFFSET -0.000000 -49.182560 0.000000
                CHANNELS 3 Zrotation Xrotation Yrotation
                JOINT RightToeBase
                {
                    OFFSET -0.000000 -6.553152 15.122660
                    CHANNELS 3 Zrotation Xrotation Yrotation
                    End Site
                    {
                        OFFSET -0.000000 0.000000 4.032709
                    }
                }
            }
        }
    }
}
MOTION
Frames:    10
Frame Time:    0.008333
-28.363949    92.329781    17.060215    -0.658639    -1.087366    -173.937408    -1.911945    -10.272143    -0.631250    -0.235655    1.386813    -0.456573    -0.330887    21.943857    -12.121777    11.909724    -2.801117    -10.675841    16.938025    -2.633139    -8.514773    -25.689764    -0.455412    -4.003284    -0.027084    -0.512180    3.753078    9.604593    -0.635502    -1.476565    -13.011500    -1.031502    -1.805211    27.351368    4.915978    5.218464    -0.835840    -1.189566    0.263625    -15.957479    -1.634840    3.190400    -1.434045    -4.792027    -2.079842    1.592975    14.976401    0.643523    -0.473489    -10.472540    -2.413404    0.000000    0.000000    0.000000    -1.157027    -1.778860    4.384674    1.209697    11.245566    -1.379134    -0.667916    -9.649401    -9.673432    0.000000    0.000000    0.000000    
-28.366692    92.329163    17.056036    -0.658950    -1.087517    -173.937881    -1.907852    -10.275032    -0.632205    -0.244338    1.394612    -0.457719    -0.331021    21.941374    -12.122878    11.922214    -2.796358    -10.675413    16.932865    -2.622499    -8.517616    -25.690935    -0.461644    -3.996232    -0.035008    -0.511193    3.753615    9.588892    -0.634098    -1.477978    -13.007109    -1.031413    -1.805611    27.357655    4.931946    5.225602    -0.835820    -1.189400    0.269101    -15.960678    -1.634602    3.189560    -1.434634    -4.790383    -2.083116    1.590004    14.978438    0.646535    -0.470770    -10.476102    -2.412723    0.000000    0.000000    0.000000    -1.158177    -1.778778    4.379409    1.208370    11.249944    -1.377051    -0.668973    -9.652787    -9.670732    0.000000    0.000000    0.000000    
-28.369490    92.328529    17.051813    -0.659284    -1.087733    -173.938400    -1.903821    -10.277955    -0.633167    -0.253022    1.402447    -0.458917    -0.331270    21.939079    -12.124189    11.934846    -2.791799    -10.675170    16.927513    -2.611703    -8.520483    -25.691767    -0.467699    -3.988825    -0.042992    -0.510300    3.754181    9.573991    -0.632942    -1.479473    -13.002731    -1.031191    -1.805939    27.363934    4.948248    5.232711    -0.835630    -1.189276    0.274897    -15.964060    -1.634389    3.188398    -1.435352    -4.788744    -2.086187    1.587175    14.980478    0.649484    -0.468058    -10.479766    -2.412061    0.000000    0.000000    0.000000    -1.159517    -1.778707    4.374662    1.207349    11.254305    -1.375167    -0.669634    -9.656145    -9.668313    0.000000    0.000000    0.000000    
-28.372234    92.327904    17.047697    -0.659592    -1.087952    -173.939026    -1.899952    -10.280745    -0.634132    -0.261397    1.410112    -0.460071    -0.331699    21.936831    -12.125787    11.947048    -2.787502    -10.675291    16.922443    -2.601185    -8.523149    -25.692194    -0.473376    -3.981291    -0.050738    -0.509498    3.754886    9.560835    -0.631786    -1.481025    -12.998615    -1.031159    -1.806043    27.370005    4.964614    5.239086    -0.835467    -1.189197    0.281016    -15.966976    -1.634074    3.186779    -1.436067    -4.787038    -2.089343    1.584352    14.982272    0.652914    -0.465393    -10.483326    -2.411623    0.000000    0.000000    0.000000    -1.160752    -1.778684    4.370069    1.206232    11.258559    -1.373384    -0.670264    -9.659452    -9.665813    0.000000    0.000000    0.000000    
-28.375000    92.327286    17.043573    -0.659795    -1.088241    -173.939789    -1.896236    -10.283497    -0.635109    -0.269417    1.417718    -0.461259    -0.332256    21.934624    -12.127819    11.958783    -2.783376    -10.675921    16.917347    -2.590383    -8.525549    -25.691887    -0.478932    -3.973521    -0.058310    -0.508782    3.755834    9.549361    -0.630840    -1.482694    -12.994823    -1.030919    -1.806008    27.375982    4.981098    5.245117    -0.835003    -1.189243    0.287603    -15.969822    -1.633904    3.184774    -1.436792    -4.785324    -2.092177    1.581717    14.983992    0.656379    -0.462859    -10.486983    -2.411258    0.000000    0.000000    0.000000    -1.161910    -1.778752    4.365916    1.205189    11.262808    -1.372035    -0.672188    -9.662983    -9.663159    0.000000    0.000000    0.000000    
-28.377872    92.326637    17.039358    -0.660052    -1.088654    -173.940811    -1.892727    -10.286247    -0.636207    -0.277359    1.425418    -0.462367    -0.333182    21.932354    -12.130375    11.970632    -2.779195    -10.677097    16.912132    -2.579638    -8.527783    -25.690611    -0.484241    -3.964889    -0.065567    -0.508253    3.757156    9.539761    -0.630012    -1.484502    -12.991089    -1.030718    -1.805754    27.381826    4.998205    5.250573    -0.834523    -1.189625    0.294809    -15.972216    -1.633988    3.182580    -1.437727    -4.783556    -2.094918    1.579202    14.985623    0.659891    -0.460090    -10.490941    -2.410776    0.000000    0.000000    0.000000    -1.163222    -1.779004    4.362056    1.204201    11.267220    -1.371074    -0.671304    -9.666201    -9.660095    0.000000    0.000000    0.000000    
-28.380650    92.326012    17.035297    -0.660181    -1.089148    -173.942032    -1.889591    -10.288784    -0.637119    -0.284511    1.432678    -0.463565    -0.334417    21.930292    -12.133339    11.981610    -2.775453    -10.678843    16.907192    -2.569386    -8.529617    -25.688419    -0.489733    -3.956172    -0.071968    -0.507487    3.759156    9.532479    -0.629245    -1.486635    -12.988005    -1.030423    -1.805299    27.387369    5.014471    5.255162    -0.833949    -1.190252    0.302014    -15.974137    -1.634289    3.180483    -1.438714    -4.781883    -2.096974    1.577234    14.987140    0.662963    -0.457699    -10.494815    -2.410386    0.000000    0.000000    0.000000    -1.164403    -1.779436    4.358706    1.203351    11.271500    -1.370440    -0.672721    -9.669630    -9.657063    0.000000    0.000000    0.000000    
-28.383436    92.325394    17.031250    -0.660299    -1.089800    -173.943512    -1.886861    -10.291292    -0.638062    -0.291113    1.439800    -0.464668    -0.336197    21.928204    -12.136686    11.992352    -2.771610    -10.681069    16.902267    -2.559946    -8.531150    -25.685019    -0.495134    -3.946725    -0.077903    -0.506622    3.761993    9.527528    -0.628275    -1.489132    -12.985270    -1.030357    -1.804451    27.392639    5.030498    5.258598    -0.833565    -1.191293    0.309455    -15.975369    -1.635040    3.178398    -1.439755    -4.780253    -2.099057    1.575260    14.988454    0.666108    -0.455309    -10.498575    -2.409706    0.000000    0.000000    0.000000    -1.165576    -1.780184    4.355381    1.202431    11.275938    -1.369680    -0.672321    -9.672847    -9.653831    0.000000    0.000000    0.000000    
-28.386318    92.324768    17.027050    -0.660345    -1.090615    -173.945328    -1.884513    -10.293818    -0.639044    -0.297251    1.446988    -0.465699    -0.338332    21.925999    -12.140583    12.002749    -2.767550    -10.683966    16.897686    -2.551151    -8.532381    -25.680721    -0.501242    -3.936211    -0.083220    -0.504859    3.766069    9.524323    -0.626473    -1.491995    -12.982911    -1.030049    -1.803400    27.397600    5.046036    5.261444    -0.832821    -1.192498    0.316990    -15.976304    -1.635997    3.176511    -1.440868    -4.778604    -2.100944    1.573487    14.989784    0.669024    -0.452886    -10.502669    -2.408782    0.000000    0.000000    0.000000    -1.166835    -1.781229    4.352312    1.201694    11.280715    -1.368609    -0.671999    -9.676127    -9.650866    0.000000    0.000000    0.000000    
-28.389042    92.324173    17.023014    -0.660221    -1.091567    -173.947357    -1.882715    -10.296194    -0.639967    -0.302263    1.453591    -0.466555    -0.341015    21.924250    -12.144650    12.012347    -2.763960    -10.687139    16.893663    -2.543823    -8.533084    -25.675749    -0.507926    -3.925610    -0.087363    -0.502070    3.771154    9.523061    -0.623802    -1.494811    -12.981189    -1.029750    -1.802022    27.401960    5.059628    5.263073    -0.832060    -1.193697    0.323934    -15.976769    -1.636908    3.174902    -1.441847    -4.777126    -2.102357    1.572017    14.990954    0.671551    -0.450752    -10.506633    -2.407818    0.000000    0.000000    0.000000    -1.167874    -1.782599    4.349354    1.200947    11.285578    -1.366781    -0.671891    -9.679387    -9.648509    0.000000    0.000000    0.000000    
